<svg width="40" height="40" viewBox="0 0 40 40" fill="none" xmlns="http://www.w3.org/2000/svg">
<circle cx="20" cy="20" r="20" fill="#24B14B"/>
<path d="M32.1459 20.0729C32.1459 26.0983 27.7252 31.0935 21.9543 32V23.5862H24.7603L25.2945 20.1051H21.9543V17.8465C21.9543 16.8937 22.4211 15.9661 23.9162 15.9661H25.4343V13.0022C25.4343 13.0022 24.056 12.7668 22.739 12.7668C19.9884 12.7668 18.1916 14.4339 18.1916 17.4511V20.1041H15.1341V23.5852H18.1916V31.999C12.4217 31.0915 8 26.0973 8 20.0729C8 13.4057 13.4057 8 20.0729 8C26.7402 8 32.1459 13.4047 32.1459 20.0729Z" fill="white"/>
</svg>
