<svg width="24" height="24" viewBox="0 0 24 24" fill="none" xmlns="http://www.w3.org/2000/svg">
<g clip-path="url(#clip0_1_123)">
<path d="M18.656 4.92995L6.46402 17.122C5.99836 17.5851 5.6292 18.136 5.3779 18.7428C5.1266 19.3496 4.99817 20.0002 5.00002 20.6569V22C5.00002 22.2652 5.10538 22.5195 5.29291 22.7071C5.48045 22.8946 5.7348 23 6.00002 23H7.34302C7.99978 23.0018 8.65039 22.8734 9.25718 22.6221C9.86396 22.3708 10.4149 22.0016 10.878 21.5359L23.07 9.34395C23.6544 8.75812 23.9826 7.96443 23.9826 7.13695C23.9826 6.30948 23.6544 5.51578 23.07 4.92995C22.4757 4.36184 21.6852 4.0448 20.863 4.0448C20.0408 4.0448 19.2503 4.36184 18.656 4.92995V4.92995ZM21.656 7.92995L9.46402 20.122C8.90015 20.6824 8.13803 20.9979 7.34302 21H7.00002V20.6569C7.0021 19.8619 7.31759 19.0998 7.87802 18.536L20.07 6.34395C20.2836 6.13991 20.5676 6.02604 20.863 6.02604C21.1584 6.02604 21.4424 6.13991 21.656 6.34395C21.866 6.55447 21.9839 6.83964 21.9839 7.13695C21.9839 7.43426 21.866 7.71944 21.656 7.92995V7.92995Z" fill="#2FD35C"/>
</g>
<defs>
<clipPath id="clip0_1_123">
<rect width="24" height="24" fill="white"/>
</clipPath>
</defs>
</svg>
