<svg width="20" height="21" viewBox="0 0 20 21" fill="none" xmlns="http://www.w3.org/2000/svg">
<path d="M16.6675 3.84814H3.33418C2.41751 3.84814 1.67584 4.59814 1.67584 5.51481L1.66751 15.5148C1.66751 16.4315 2.41751 17.1815 3.33418 17.1815H16.6675C17.5842 17.1815 18.3342 16.4315 18.3342 15.5148V5.51481C18.3342 4.59814 17.5842 3.84814 16.6675 3.84814ZM16.3342 7.38981L10.4425 11.0731C10.1758 11.2398 9.82584 11.2398 9.55918 11.0731L3.66751 7.38981C3.58395 7.3429 3.51078 7.27953 3.45242 7.20352C3.39406 7.12752 3.35173 7.04046 3.32799 6.94762C3.30425 6.85478 3.2996 6.75809 3.31431 6.6634C3.32902 6.56871 3.36279 6.47799 3.41358 6.39673C3.46437 6.31547 3.53111 6.24536 3.60978 6.19064C3.68845 6.13592 3.7774 6.09774 3.87126 6.07839C3.96511 6.05905 4.06191 6.05895 4.15581 6.0781C4.2497 6.09725 4.33873 6.13526 4.41751 6.18981L10.0008 9.68148L15.5842 6.18981C15.663 6.13526 15.752 6.09725 15.8459 6.0781C15.9398 6.05895 16.0366 6.05905 16.1304 6.07839C16.2243 6.09774 16.3132 6.13592 16.3919 6.19064C16.4706 6.24536 16.5373 6.31547 16.5881 6.39673C16.6389 6.47799 16.6727 6.56871 16.6874 6.6634C16.7021 6.75809 16.6974 6.85478 16.6737 6.94762C16.65 7.04046 16.6076 7.12752 16.5493 7.20352C16.4909 7.27953 16.4177 7.3429 16.3342 7.38981V7.38981Z" fill="#2FD35C"/>
</svg>
