<svg width="40" height="40" viewBox="0 0 40 40" fill="none" xmlns="http://www.w3.org/2000/svg">
<circle cx="20" cy="20" r="20" fill="#24B14B"/>
<path d="M20 10.162C23.204 10.162 23.584 10.174 24.849 10.232C26.157 10.292 27.504 10.59 28.457 11.543C29.419 12.505 29.708 13.839 29.768 15.151C29.826 16.416 29.838 16.796 29.838 20C29.838 23.204 29.826 23.584 29.768 24.849C29.709 26.15 29.404 27.51 28.457 28.457C27.495 29.419 26.162 29.708 24.849 29.768C23.584 29.826 23.204 29.838 20 29.838C16.796 29.838 16.416 29.826 15.151 29.768C13.86 29.709 12.482 29.397 11.543 28.457C10.586 27.5 10.292 26.153 10.232 24.849C10.174 23.584 10.162 23.204 10.162 20C10.162 16.796 10.174 16.416 10.232 15.151C10.291 13.855 10.599 12.487 11.543 11.543C12.503 10.583 13.842 10.292 15.151 10.232C16.416 10.174 16.796 10.162 20 10.162ZM20 8C16.741 8 16.332 8.014 15.052 8.072C13.197 8.157 11.355 8.673 10.014 10.014C8.668 11.36 8.157 13.198 8.072 15.052C8.014 16.332 8 16.741 8 20C8 23.259 8.014 23.668 8.072 24.948C8.157 26.801 8.675 28.648 10.014 29.986C11.359 31.331 13.2 31.843 15.052 31.928C16.332 31.986 16.741 32 20 32C23.259 32 23.668 31.986 24.948 31.928C26.802 31.843 28.646 31.326 29.986 29.986C31.333 28.639 31.843 26.802 31.928 24.948C31.986 23.668 32 23.259 32 20C32 16.741 31.986 16.332 31.928 15.052C31.843 13.197 31.326 11.354 29.986 10.014C28.643 8.671 26.797 8.156 24.948 8.072C23.668 8.014 23.259 8 20 8Z" fill="white"/>
<path d="M20 13.8379C16.597 13.8379 13.838 16.5969 13.838 19.9999C13.838 23.4029 16.597 26.1619 20 26.1619C23.403 26.1619 26.162 23.4029 26.162 19.9999C26.162 16.5969 23.403 13.8379 20 13.8379ZM20 23.9999C17.791 23.9999 16 22.2089 16 19.9999C16 17.7909 17.791 15.9999 20 15.9999C22.209 15.9999 24 17.7909 24 19.9999C24 22.2089 22.209 23.9999 20 23.9999Z" fill="white"/>
<path d="M26.406 15.0341C27.2013 15.0341 27.846 14.3893 27.846 13.5941C27.846 12.7988 27.2013 12.1541 26.406 12.1541C25.6107 12.1541 24.966 12.7988 24.966 13.5941C24.966 14.3893 25.6107 15.0341 26.406 15.0341Z" fill="white"/>
</svg>
