<svg width="1920" height="401" viewBox="0 0 1920 401" fill="none" xmlns="http://www.w3.org/2000/svg">
<g opacity="0.8">
<path d="M0 330.191C64 306.251 128 306.251 192 330.191C256 354.131 320 354.131 384 330.191C448 306.251 512 306.251 576 330.191C640 354.131 704 354.131 768 330.191C832 306.251 896 306.251 960 330.191C1024 354.131 1088 354.131 1152 330.191C1216 306.251 1280 306.251 1344 330.191C1408 354.131 1472 354.131 1536 330.191C1600 306.251 1664 306.251 1728 330.191C1792 354.131 1856 354.131 1920 330.191" stroke="#4A4A4A" stroke-width="2" stroke-linejoin="round"/>
<path d="M0 278.321C64 254.381 128 254.381 192 278.321C256 302.261 320 302.261 384 278.321C448 254.381 512 254.381 576 278.321C640 302.261 704 302.261 768 278.321C832 254.381 896 254.381 960 278.321C1024 302.261 1088 302.261 1152 278.321C1216 254.381 1280 254.381 1344 278.321C1408 302.261 1472 302.261 1536 278.321C1600 254.381 1664 254.381 1728 278.321C1792 302.261 1856 302.261 1920 278.321" stroke="#4A4A4A" stroke-width="2" stroke-linejoin="round"/>
<path d="M0 226.451C64 202.511 128 202.511 192 226.451C256 250.391 320 250.391 384 226.451C448 202.511 512 202.511 576 226.451C640 250.391 704 250.391 768 226.451C832 202.511 896 202.511 960 226.451C1024 250.391 1088 250.391 1152 226.451C1216 202.511 1280 202.511 1344 226.451C1408 250.391 1472 250.391 1536 226.451C1600 202.511 1664 202.511 1728 226.451C1792 250.391 1856 250.391 1920 226.451" stroke="#4A4A4A" stroke-width="2" stroke-linejoin="round"/>
<path d="M0 174.581C64 150.641 128 150.641 192 174.581C256 198.521 320 198.521 384 174.581C448 150.641 512 150.641 576 174.581C640 198.521 704 198.521 768 174.581C832 150.641 896 150.641 960 174.581C1024 198.521 1088 198.521 1152 174.581C1216 150.641 1280 150.641 1344 174.581C1408 198.521 1472 198.521 1536 174.581C1600 150.641 1664 150.641 1728 174.581C1792 198.521 1856 198.521 1920 174.581" stroke="#4A4A4A" stroke-width="2" stroke-linejoin="round"/>
<path d="M0 122.711C64 98.7709 128 98.7709 192 122.711C256 146.651 320 146.651 384 122.711C448 98.7709 512 98.7709 576 122.711C640 146.651 704 146.651 768 122.711C832 98.7709 896 98.7709 960 122.711C1024 146.651 1088 146.651 1152 122.711C1216 98.7709 1280 98.7709 1344 122.711C1408 146.651 1472 146.651 1536 122.711C1600 98.7709 1664 98.7709 1728 122.711C1792 146.651 1856 146.651 1920 122.711" stroke="#4A4A4A" stroke-width="2" stroke-linejoin="round"/>
<path d="M0 70.841C64 46.901 128 46.901 192 70.841C256 94.781 320 94.781 384 70.841C448 46.901 512 46.901 576 70.841C640 94.781 704 94.781 768 70.841C832 46.901 896 46.901 960 70.841C1024 94.781 1088 94.781 1152 70.841C1216 46.901 1280 46.901 1344 70.841C1408 94.781 1472 94.781 1536 70.841C1600 46.901 1664 46.901 1728 70.841C1792 94.781 1856 94.781 1920 70.841" stroke="#4A4A4A" stroke-width="2" stroke-linejoin="round"/>
<path d="M0 18.9709C64 -4.96913 128 -4.96913 192 18.9709C256 42.9109 320 42.9109 384 18.9709C448 -4.96913 512 -4.96913 576 18.9709C640 42.9109 704 42.9109 768 18.9709C832 -4.96913 896 -4.96913 960 18.9709C1024 42.9109 1088 42.9109 1152 18.9709C1216 -4.96913 1280 -4.96913 1344 18.9709C1408 42.9109 1472 42.9109 1536 18.9709C1600 -4.96913 1664 -4.96913 1728 18.9709C1792 42.9109 1856 42.9109 1920 18.9709" stroke="#4A4A4A" stroke-width="2" stroke-linejoin="round"/>
<mask id="mask0_1_465" style="mask-type:alpha" maskUnits="userSpaceOnUse" x="-1" y="363" width="1922" height="39">
<path d="M0 382.061C64 358.121 128 358.121 192 382.061C256 406.001 320 406.001 384 382.061C448 358.121 512 358.121 576 382.061C640 406.001 704 406.001 768 382.061C832 358.121 896 358.121 960 382.061C1024 406.001 1088 406.001 1152 382.061C1216 358.121 1280 358.121 1344 382.061C1408 406.001 1472 406.001 1536 382.061C1600 358.121 1664 358.121 1728 382.061C1792 406.001 1856 406.001 1920 382.061" stroke="#121213" stroke-width="2" stroke-linejoin="round"/>
</mask>
<g mask="url(#mask0_1_465)">
</g>
</g>
</svg>
