<svg width="17" height="15" viewBox="0 0 17 15" fill="none" xmlns="http://www.w3.org/2000/svg">
<path d="M13.1944 0H3.47222C2.55167 0.00108263 1.66914 0.360601 1.01821 0.999695C0.367279 1.63879 0.00110268 2.50528 0 3.40909L0 11.5909C0.00110268 12.4947 0.367279 13.3612 1.01821 14.0003C1.66914 14.6394 2.55167 14.9989 3.47222 15H13.1944C14.115 14.9989 14.9975 14.6394 15.6485 14.0003C16.2994 13.3612 16.6656 12.4947 16.6667 11.5909V3.40909C16.6656 2.50528 16.2994 1.63879 15.6485 0.999695C14.9975 0.360601 14.115 0.00108263 13.1944 0V0ZM3.47222 1.36364H13.1944C13.6103 1.36444 14.0163 1.4874 14.3604 1.71668C14.7044 1.94597 14.9707 2.2711 15.125 2.65023L9.80694 7.87227C9.41558 8.25499 8.88571 8.46986 8.33333 8.46986C7.78096 8.46986 7.25109 8.25499 6.85972 7.87227L1.54167 2.65023C1.69594 2.2711 1.96223 1.94597 2.30628 1.71668C2.65033 1.4874 3.0564 1.36444 3.47222 1.36364V1.36364ZM13.1944 13.6364H3.47222C2.91969 13.6364 2.38978 13.4209 1.99908 13.0373C1.60838 12.6537 1.38889 12.1334 1.38889 11.5909V4.43182L5.87778 8.83636C6.5296 9.47472 7.41268 9.83321 8.33333 9.83321C9.25399 9.83321 10.1371 9.47472 10.7889 8.83636L15.2778 4.43182V11.5909C15.2778 12.1334 15.0583 12.6537 14.6676 13.0373C14.2769 13.4209 13.747 13.6364 13.1944 13.6364Z" fill="white"/>
</svg>
