<svg width="20" height="10" viewBox="0 0 20 10" fill="none" xmlns="http://www.w3.org/2000/svg">
<path d="M19.114 0.412368C18.9844 0.281703 18.8302 0.17799 18.6604 0.107215C18.4905 0.0364386 18.3083 0 18.1242 0C17.9402 0 17.758 0.0364386 17.5881 0.107215C17.4182 0.17799 17.264 0.281703 17.1344 0.412368L10.7495 6.79728C10.6199 6.92795 10.4657 7.03166 10.2958 7.10244C10.126 7.17321 9.94374 7.20965 9.75971 7.20965C9.57567 7.20965 9.39346 7.17321 9.22357 7.10244C9.05369 7.03166 8.8995 6.92795 8.76991 6.79728L2.38499 0.412368C2.25539 0.281703 2.10121 0.17799 1.93132 0.107215C1.76144 0.0364386 1.57923 0 1.39519 0C1.21115 0 1.02894 0.0364386 0.859058 0.107215C0.689175 0.17799 0.534988 0.281703 0.40539 0.412368C0.14574 0.673568 0 1.0269 0 1.3952C0 1.7635 0.14574 2.11683 0.40539 2.37803L6.80424 8.77688C7.58842 9.56008 8.6514 10 9.75971 10C10.868 10 11.931 9.56008 12.7152 8.77688L19.114 2.37803C19.3737 2.11683 19.5194 1.7635 19.5194 1.3952C19.5194 1.0269 19.3737 0.673568 19.114 0.412368V0.412368Z" fill="#24B14B"/>
</svg>
