<svg width="19" height="19" viewBox="0 0 19 19" fill="none" xmlns="http://www.w3.org/2000/svg">
<path fill-rule="evenodd" clip-rule="evenodd" d="M16.1548 2.76133C14.3767 0.981667 12.0128 0.000791667 9.49446 0C4.30508 0 0.0815417 4.22275 0.0791667 9.4145C0.078375 11.0738 0.512208 12.6936 1.33633 14.1217L0 19L4.99067 17.6906C6.36579 18.4411 7.91429 18.8361 9.48971 18.8369H9.49367C14.6823 18.8369 18.9066 14.6134 18.909 9.42163C18.9105 6.9065 17.932 4.54021 16.1548 2.76133ZM9.49446 17.2465H9.49129C8.08688 17.2465 6.71017 16.8688 5.50842 16.1555L5.22263 15.9861L2.261 16.7628L3.05188 13.8747L2.86583 13.5787C2.08208 12.3326 1.66883 10.8925 1.66963 9.4145C1.67121 5.09992 5.18225 1.58967 9.49842 1.58967C11.5884 1.58967 13.5533 2.40508 15.0306 3.88392C16.5078 5.36354 17.3209 7.32925 17.3201 9.42004C17.3177 13.7362 13.8075 17.2465 9.49446 17.2465ZM13.7869 11.3858C13.5518 11.2678 12.3951 10.6986 12.179 10.6202C11.9637 10.5418 11.8069 10.5023 11.6494 10.7374C11.4918 10.9725 11.0422 11.5029 10.9044 11.6605C10.7675 11.8172 10.6297 11.837 10.3946 11.719C10.1595 11.6011 9.40104 11.3533 8.5025 10.5513C7.80346 9.9275 7.33083 9.15721 7.19388 8.92129C7.05692 8.68538 7.17963 8.55871 7.29679 8.44154C7.40288 8.33625 7.53192 8.16683 7.64988 8.02908C7.76863 7.89292 7.80742 7.79475 7.88658 7.63721C7.96496 7.48046 7.92617 7.34271 7.86679 7.22475C7.80742 7.10758 7.33717 5.94938 7.14163 5.47833C6.95083 5.01917 6.75688 5.08171 6.612 5.07458C6.47504 5.06746 6.31829 5.06667 6.16075 5.06667C6.004 5.06667 5.74908 5.12525 5.53375 5.36117C5.31842 5.59708 4.71042 6.16629 4.71042 7.32371C4.71042 8.48192 5.55354 9.60054 5.67071 9.75729C5.78788 9.91404 7.32925 12.2906 9.68921 13.3095C10.2505 13.5518 10.6891 13.6966 11.0303 13.8051C11.594 13.984 12.107 13.9587 12.5123 13.8985C12.9643 13.8312 13.904 13.3293 14.1004 12.7799C14.2967 12.2305 14.2967 11.7586 14.2373 11.6612C14.1788 11.5623 14.022 11.5037 13.7869 11.3858Z" fill="white"/>
</svg>
