<svg width="20" height="21" viewBox="0 0 20 21" fill="none" xmlns="http://www.w3.org/2000/svg">
<path d="M14.5008 18.3482C11.0986 18.3437 7.83694 16.9903 5.43118 14.5845C3.02542 12.1787 1.67192 8.91708 1.66751 5.51482C1.66751 4.49816 2.07138 3.52314 2.79027 2.80425C3.50916 2.08536 4.48418 1.68149 5.50084 1.68149C5.71613 1.67985 5.93105 1.69939 6.14251 1.73982C6.34694 1.77008 6.5479 1.82032 6.74251 1.88983C6.87938 1.93785 7.00135 2.02077 7.09635 2.13039C7.19135 2.24 7.25609 2.37252 7.28418 2.51483L8.42584 7.51482C8.45662 7.65054 8.45291 7.79181 8.41506 7.92573C8.37722 8.05965 8.30644 8.18195 8.20918 8.28149C8.10084 8.39816 8.09251 8.40649 7.06751 8.93982C7.88834 10.7405 9.32851 12.1866 11.1258 13.0148C11.6675 11.9815 11.6758 11.9732 11.7925 11.8648C11.892 11.7676 12.0144 11.6968 12.1483 11.6589C12.2822 11.6211 12.4235 11.6174 12.5592 11.6482L17.5592 12.7898C17.6969 12.8218 17.8243 12.8883 17.9292 12.983C18.0342 13.0778 18.1133 13.1977 18.1592 13.3315C18.2295 13.5293 18.2825 13.7328 18.3175 13.9398C18.351 14.1493 18.3678 14.361 18.3675 14.5732C18.3521 15.5855 17.9369 16.5506 17.2125 17.2579C16.4881 17.9651 15.5132 18.3571 14.5008 18.3482V18.3482Z" fill="#2FD35C"></path>
</svg>
