<svg width="15" height="21" viewBox="0 0 15 21" fill="none" xmlns="http://www.w3.org/2000/svg">
<g clip-path="url('#clip0_1_603')">
<path d="M6.57507 19.5149C4.53601 17.0071 0.000854492 10.929 0.000854492 7.51489C0.000854492 3.37271 3.35867 0.0148926 7.50085 0.0148926C11.6415 0.0148926 15.0009 3.37271 15.0009 7.51489C15.0009 10.929 10.4305 17.0071 8.42664 19.5149C7.94617 20.1125 7.05554 20.1125 6.57507 19.5149V19.5149ZM7.50085 10.0149C8.87976 10.0149 10.0009 8.8938 10.0009 7.51489C10.0009 6.13599 8.87976 5.01489 7.50085 5.01489C6.12195 5.01489 5.00085 6.13599 5.00085 7.51489C5.00085 8.8938 6.12195 10.0149 7.50085 10.0149Z" fill="#2FD35C"></path>
</g>
<defs>
<clipPath id="clip0_1_603">
<rect width="15" height="20" fill="white" transform="translate(0.000854492 0.0148926)"></rect>
</clipPath>
</defs>
</svg>
