<svg width="115" height="200" viewBox="0 0 115 200" fill="none" xmlns="http://www.w3.org/2000/svg">
<g filter="url('#filter0_d_1_452')">
<rect x="50" y="30" width="40" height="40" rx="20" fill="#4499FE"></rect>
</g>
<g clip-path="url('#clip0_1_452')">
<path d="M71.111 37.7779C71.111 37.4832 71.2281 37.2006 71.4365 36.9923C71.6449 36.7839 71.9275 36.6668 72.2222 36.6668C75.168 36.67 77.9923 37.8417 80.0753 39.9248C82.1584 42.0078 83.33 44.8321 83.3333 47.7779C83.3333 48.0726 83.2162 48.3552 83.0078 48.5636C82.7995 48.772 82.5168 48.889 82.2222 48.889C81.9275 48.889 81.6449 48.772 81.4365 48.5636C81.2281 48.3552 81.111 48.0726 81.111 47.7779C81.1084 45.4213 80.171 43.1619 78.5046 41.4955C76.8382 39.829 74.5788 38.8917 72.2222 38.889C71.9275 38.889 71.6449 38.772 71.4365 38.5636C71.2281 38.3552 71.111 38.0726 71.111 37.7779V37.7779ZM72.2222 43.3335C73.4009 43.3335 74.5314 43.8017 75.3649 44.6352C76.1983 45.4687 76.6666 46.5992 76.6666 47.7779C76.6666 48.0726 76.7837 48.3552 76.992 48.5636C77.2004 48.772 77.483 48.889 77.7777 48.889C78.0724 48.889 78.355 48.772 78.5634 48.5636C78.7718 48.3552 78.8888 48.0726 78.8888 47.7779C78.8871 46.0104 78.1841 44.3157 76.9343 43.0658C75.6844 41.816 73.9897 41.113 72.2222 41.1113C71.9275 41.1113 71.6449 41.2283 71.4365 41.4367C71.2281 41.6451 71.111 41.9277 71.111 42.2224C71.111 42.5171 71.2281 42.7997 71.4365 43.008C71.6449 43.2164 71.9275 43.3335 72.2222 43.3335V43.3335ZM82.3255 55.2657C82.9694 55.9114 83.331 56.7861 83.331 57.6979C83.331 58.6098 82.9694 59.4845 82.3255 60.1301L81.3144 61.2957C72.2144 70.0079 50.0699 47.869 58.6477 38.7401L59.9255 37.629C60.5719 37.0031 61.4387 36.6569 62.3385 36.6652C63.2382 36.6735 64.0985 37.0357 64.7333 37.6735C64.7677 37.7079 66.8266 40.3824 66.8266 40.3824C67.4375 41.0242 67.7776 41.8767 67.7762 42.7628C67.7747 43.6489 67.4318 44.5003 66.8188 45.1401L65.5322 46.7579C66.2442 48.488 67.2911 50.0604 68.6127 51.3847C69.9343 52.709 71.5046 53.759 73.2333 54.4746L74.861 53.1801C75.5009 52.5676 76.3522 52.2251 77.238 52.2239C78.1239 52.2227 78.9761 52.5627 79.6177 53.1735C79.6177 53.1735 82.291 55.2313 82.3255 55.2657ZM80.7966 56.8813C80.7966 56.8813 78.1377 54.8357 78.1033 54.8013C77.8744 54.5743 77.5651 54.4469 77.2427 54.4469C76.9204 54.4469 76.6111 54.5743 76.3822 54.8013C76.3522 54.8324 74.111 56.6179 74.111 56.6179C73.96 56.7381 73.7803 56.8169 73.5895 56.8465C73.3988 56.8762 73.2036 56.8556 73.0233 56.7868C70.7838 55.953 68.7496 54.6476 67.0586 52.9591C65.3676 51.2706 64.0593 49.2384 63.2222 47.0001C63.1479 46.8173 63.1237 46.618 63.1521 46.4227C63.1804 46.2275 63.2602 46.0433 63.3833 45.889C63.3833 45.889 65.1688 43.6468 65.1988 43.6179C65.4258 43.389 65.5531 43.0797 65.5531 42.7574C65.5531 42.435 65.4258 42.1257 65.1988 41.8968C65.1644 41.8635 63.1188 39.2024 63.1188 39.2024C62.8865 38.994 62.5833 38.8825 62.2713 38.8905C61.9594 38.8986 61.6623 39.0257 61.441 39.2457L60.1633 40.3568C53.8944 47.8946 73.0844 66.0201 79.6899 59.7779L80.7022 58.6113C80.9394 58.3915 81.0818 58.0882 81.0995 57.7654C81.1171 57.4425 81.0085 57.1255 80.7966 56.8813V56.8813Z" fill="white"></path>
</g>
<g filter="url('#filter1_d_1_452')">
<rect x="50" y="90" width="40" height="40" rx="20" fill="#FFA033"></rect>
</g>
<g clip-path="url('#clip1_1_452')">
<path fill-rule="evenodd" clip-rule="evenodd" d="M79.4033 100.542C76.9078 98.0445 73.59 96.6679 70.0555 96.6667C62.7722 96.6667 56.8444 102.593 56.8411 109.88C56.84 112.209 57.4489 114.482 58.6055 116.487L56.73 123.333L63.7344 121.496C65.6644 122.549 67.8378 123.103 70.0489 123.105H70.0544C77.3366 123.105 83.2655 117.177 83.2689 109.89C83.2711 106.36 81.8978 103.039 79.4033 100.542ZM70.0555 120.872H70.0511C68.08 120.872 66.1478 120.342 64.4611 119.341L64.06 119.103L59.9033 120.193L61.0133 116.14L60.7522 115.725C59.6522 113.976 59.0722 111.955 59.0733 109.88C59.0755 103.825 64.0033 98.8979 70.0611 98.8979C72.9944 98.8979 75.7522 100.042 77.8255 102.118C79.8989 104.195 81.04 106.953 81.0389 109.888C81.0355 115.946 76.1089 120.872 70.0555 120.872ZM76.08 112.647C75.75 112.481 74.1266 111.682 73.8233 111.572C73.5211 111.462 73.3011 111.407 73.08 111.737C72.8589 112.067 72.2278 112.811 72.0344 113.032C71.8422 113.252 71.6489 113.28 71.3189 113.115C70.9889 112.949 69.9244 112.601 68.6633 111.476C67.6822 110.6 67.0189 109.519 66.8266 109.188C66.6344 108.857 66.8066 108.679 66.9711 108.515C67.12 108.367 67.3011 108.129 67.4666 107.936C67.6333 107.745 67.6878 107.607 67.7989 107.386C67.9089 107.166 67.8544 106.972 67.7711 106.807C67.6878 106.642 67.0278 105.017 66.7533 104.356C66.4855 103.711 66.2133 103.799 66.01 103.789C65.8178 103.779 65.5978 103.778 65.3766 103.778C65.1566 103.778 64.7989 103.86 64.4966 104.191C64.1944 104.522 63.3411 105.321 63.3411 106.946C63.3411 108.571 64.5244 110.141 64.6889 110.361C64.8533 110.581 67.0166 113.917 70.3289 115.347C71.1166 115.687 71.7322 115.89 72.2111 116.042C73.0022 116.293 73.7222 116.258 74.2911 116.173C74.9255 116.079 76.2444 115.375 76.52 114.603C76.7955 113.832 76.7955 113.17 76.7122 113.033C76.63 112.895 76.41 112.812 76.08 112.647Z" fill="white"></path>
</g>
<defs>
<filter id="filter0_d_1_452" x="0" y="0" width="140" height="140" filterUnits="userSpaceOnUse" color-interpolation-filters="sRGB">
<feFlood flood-opacity="0" result="BackgroundImageFix"></feFlood>
<feColorMatrix in="SourceAlpha" type="matrix" values="0 0 0 0 0 0 0 0 0 0 0 0 0 0 0 0 0 0 127 0" result="hardAlpha"></feColorMatrix>
<feMorphology radius="10" operator="dilate" in="SourceAlpha" result="effect1_dropShadow_1_452"></feMorphology>
<feOffset dy="20"></feOffset>
<feGaussianBlur stdDeviation="20"></feGaussianBlur>
<feComposite in2="hardAlpha" operator="out"></feComposite>
<feColorMatrix type="matrix" values="0 0 0 0 0.220833 0 0 0 0 0.203351 0 0 0 0 0.203351 0 0 0 0.2 0"></feColorMatrix>
<feBlend mode="normal" in2="BackgroundImageFix" result="effect1_dropShadow_1_452"></feBlend>
<feBlend mode="normal" in="SourceGraphic" in2="effect1_dropShadow_1_452" result="shape"></feBlend>
</filter>
<filter id="filter1_d_1_452" x="0" y="60" width="140" height="140" filterUnits="userSpaceOnUse" color-interpolation-filters="sRGB">
<feFlood flood-opacity="0" result="BackgroundImageFix"></feFlood>
<feColorMatrix in="SourceAlpha" type="matrix" values="0 0 0 0 0 0 0 0 0 0 0 0 0 0 0 0 0 0 127 0" result="hardAlpha"></feColorMatrix>
<feMorphology radius="10" operator="dilate" in="SourceAlpha" result="effect1_dropShadow_1_452"></feMorphology>
<feOffset dy="20"></feOffset>
<feGaussianBlur stdDeviation="20"></feGaussianBlur>
<feComposite in2="hardAlpha" operator="out"></feComposite>
<feColorMatrix type="matrix" values="0 0 0 0 0.220833 0 0 0 0 0.203351 0 0 0 0 0.203351 0 0 0 0.2 0"></feColorMatrix>
<feBlend mode="normal" in2="BackgroundImageFix" result="effect1_dropShadow_1_452"></feBlend>
<feBlend mode="normal" in="SourceGraphic" in2="effect1_dropShadow_1_452" result="shape"></feBlend>
</filter>
<clipPath id="clip0_1_452">
<rect width="26.6667" height="26.6667" fill="white" transform="translate(56.6666 36.6667)"></rect>
</clipPath>
<clipPath id="clip1_1_452">
<rect width="26.6667" height="26.6667" fill="white" transform="translate(56.6666 96.6667)"></rect>
</clipPath>
</defs>
</svg>
