<svg width="40" height="40" viewBox="0 0 40 40" fill="none" xmlns="http://www.w3.org/2000/svg">
<circle cx="20" cy="20" r="20" fill="#24B14B"></circle>
<path d="M28.4504 28.4505H24.8939V22.8811C24.8939 21.5529 24.8703 19.8439 23.0442 19.8439C21.192 19.8439 20.9082 21.2904 20.9082 22.7853V28.4505H17.3529V16.9971H20.7674V18.5618H20.8147C21.5114 17.372 22.8053 16.6612 24.1831 16.7121C27.788 16.7121 28.4516 19.0834 28.4516 22.1668L28.4504 28.4505ZM13.34 15.4312C12.1998 15.4312 11.2761 14.5075 11.2761 13.3673C11.2761 12.2272 12.1998 11.3035 13.34 11.3035C14.4801 11.3035 15.4038 12.2272 15.4038 13.3673C15.4038 14.5075 14.4801 15.4312 13.34 15.4312ZM15.1176 28.4505H11.5576V16.9971H15.1176V28.4505ZM30.2233 8.00134H9.77053C8.80425 7.9907 8.01183 8.76538 8 9.73166V30.2684C8.01183 31.2358 8.80425 32.0105 9.77053 31.9999H30.2233C31.1919 32.0117 31.9879 31.237 32.0009 30.2684V9.73048C31.9867 8.76183 31.1907 7.98715 30.2233 8.00016" fill="white"></path>
</svg>
