<svg width="1885" height="400" viewBox="0 0 1885 400" fill="none" xmlns="http://www.w3.org/2000/svg">
<path d="M1 330.176C65 306.236 129 306.236 193 330.176C257 354.116 321 354.116 385 330.176C449 306.236 513 306.236 577 330.176C641 354.116 705 354.116 769 330.176C833 306.236 897 306.236 961 330.176C1025 354.116 1089 354.116 1153 330.176C1217 306.236 1281 306.236 1345 330.176C1409 354.116 1473 354.116 1537 330.176C1601 306.236 1665 306.236 1729 330.176C1793 354.116 1857 354.116 1921 330.176" stroke="#4E4842" stroke-opacity="0.15" stroke-width="2" stroke-linejoin="round"></path>
<path d="M1 278.306C65 254.366 129 254.366 193 278.306C257 302.246 321 302.246 385 278.306C449 254.366 513 254.366 577 278.306C641 302.246 705 302.246 769 278.306C833 254.366 897 254.366 961 278.306C1025 302.246 1089 302.246 1153 278.306C1217 254.366 1281 254.366 1345 278.306C1409 302.246 1473 302.246 1537 278.306C1601 254.366 1665 254.366 1729 278.306C1793 302.246 1857 302.246 1921 278.306" stroke="#4E4842" stroke-opacity="0.15" stroke-width="2" stroke-linejoin="round"></path>
<path d="M1 226.436C65 202.496 129 202.496 193 226.436C257 250.376 321 250.376 385 226.436C449 202.496 513 202.496 577 226.436C641 250.376 705 250.376 769 226.436C833 202.496 897 202.496 961 226.436C1025 250.376 1089 250.376 1153 226.436C1217 202.496 1281 202.496 1345 226.436C1409 250.376 1473 250.376 1537 226.436C1601 202.496 1665 202.496 1729 226.436C1793 250.376 1857 250.376 1921 226.436" stroke="#4E4842" stroke-opacity="0.15" stroke-width="2" stroke-linejoin="round"></path>
<path d="M1 174.566C65 150.626 129 150.626 193 174.566C257 198.506 321 198.506 385 174.566C449 150.626 513 150.626 577 174.566C641 198.506 705 198.506 769 174.566C833 150.626 897 150.626 961 174.566C1025 198.506 1089 198.506 1153 174.566C1217 150.626 1281 150.626 1345 174.566C1409 198.506 1473 198.506 1537 174.566C1601 150.626 1665 150.626 1729 174.566C1793 198.506 1857 198.506 1921 174.566" stroke="#4E4842" stroke-opacity="0.15" stroke-width="2" stroke-linejoin="round"></path>
<path d="M1 122.696C65 98.756 129 98.756 193 122.696C257 146.636 321 146.636 385 122.696C449 98.756 513 98.756 577 122.696C641 146.636 705 146.636 769 122.696C833 98.756 897 98.756 961 122.696C1025 146.636 1089 146.636 1153 122.696C1217 98.756 1281 98.756 1345 122.696C1409 146.636 1473 146.636 1537 122.696C1601 98.756 1665 98.756 1729 122.696C1793 146.636 1857 146.636 1921 122.696" stroke="#4E4842" stroke-opacity="0.15" stroke-width="2" stroke-linejoin="round"></path>
<path d="M1 70.826C65 46.886 129 46.886 193 70.826C257 94.766 321 94.766 385 70.826C449 46.886 513 46.886 577 70.826C641 94.766 705 94.766 769 70.826C833 46.886 897 46.886 961 70.826C1025 94.766 1089 94.766 1153 70.826C1217 46.886 1281 46.886 1345 70.826C1409 94.766 1473 94.766 1537 70.826C1601 46.886 1665 46.886 1729 70.826C1793 94.766 1857 94.766 1921 70.826" stroke="#4E4842" stroke-opacity="0.15" stroke-width="2" stroke-linejoin="round"></path>
<path d="M1 18.956C65 -4.98402 129 -4.98402 193 18.956C257 42.896 321 42.896 385 18.956C449 -4.98402 513 -4.98402 577 18.956C641 42.896 705 42.896 769 18.956C833 -4.98402 897 -4.98402 961 18.956C1025 42.896 1089 42.896 1153 18.956C1217 -4.98402 1281 -4.98402 1345 18.956C1409 42.896 1473 42.896 1537 18.956C1601 -4.98402 1665 -4.98402 1729 18.956C1793 42.896 1857 42.896 1921 18.956" stroke="#4E4842" stroke-opacity="0.15" stroke-width="2" stroke-linejoin="round"></path>
<mask id="mask0_1_132" style="mask-type: alpha" maskUnits="userSpaceOnUse" x="0" y="363" width="1922" height="39">
<path d="M1 382.046C65 358.106 129 358.106 193 382.046C257 405.986 321 405.986 385 382.046C449 358.106 513 358.106 577 382.046C641 405.986 705 405.986 769 382.046C833 358.106 897 358.106 961 382.046C1025 405.986 1089 405.986 1153 382.046C1217 358.106 1281 358.106 1345 382.046C1409 405.986 1473 405.986 1537 382.046C1601 358.106 1665 358.106 1729 382.046C1793 405.986 1857 405.986 1921 382.046" stroke="#121213" stroke-width="2" stroke-linejoin="round"></path>
</mask>
<g mask="url('#mask0_1_132')">
</g>
</svg>
