<svg width="146" height="20" viewBox="0 0 146 20" fill="none" xmlns="http://www.w3.org/2000/svg">
<path d="M10 1.80167C12.67 1.80167 12.9867 1.81167 14.0408 1.86C15.1308 1.91 16.2533 2.15833 17.0475 2.9525C17.8492 3.75417 18.09 4.86583 18.14 5.95917C18.1883 7.01333 18.1983 7.33 18.1983 10C18.1983 12.67 18.1883 12.9867 18.14 14.0408C18.0908 15.125 17.8367 16.2583 17.0475 17.0475C16.2458 17.8492 15.135 18.09 14.0408 18.14C12.9867 18.1883 12.67 18.1983 10 18.1983C7.33 18.1983 7.01333 18.1883 5.95917 18.14C4.88333 18.0908 3.735 17.8308 2.9525 17.0475C2.155 16.25 1.91 15.1275 1.86 14.0408C1.81167 12.9867 1.80167 12.67 1.80167 10C1.80167 7.33 1.81167 7.01333 1.86 5.95917C1.90917 4.87917 2.16583 3.73917 2.9525 2.9525C3.7525 2.1525 4.86833 1.91 5.95917 1.86C7.01333 1.81167 7.33 1.80167 10 1.80167ZM10 0C7.28417 0 6.94333 0.0116667 5.87667 0.06C4.33083 0.130833 2.79583 0.560833 1.67833 1.67833C0.556667 2.8 0.130833 4.33167 0.06 5.87667C0.0116667 6.94333 0 7.28417 0 10C0 12.7158 0.0116667 13.0567 0.06 14.1233C0.130833 15.6675 0.5625 17.2067 1.67833 18.3217C2.79917 19.4425 4.33333 19.8692 5.87667 19.94C6.94333 19.9883 7.28417 20 10 20C12.7158 20 13.0567 19.9883 14.1233 19.94C15.6683 19.8692 17.205 19.4383 18.3217 18.3217C19.4442 17.1992 19.8692 15.6683 19.94 14.1233C19.9883 13.0567 20 12.7158 20 10C20 7.28417 19.9883 6.94333 19.94 5.87667C19.8692 4.33083 19.4383 2.795 18.3217 1.67833C17.2025 0.559167 15.6642 0.13 14.1233 0.06C13.0567 0.0116667 12.7158 0 10 0Z" fill="white"></path>
<path d="M9.99993 4.86475C7.1641 4.86475 4.86493 7.16391 4.86493 9.99975C4.86493 12.8356 7.1641 15.1347 9.99993 15.1347C12.8358 15.1347 15.1349 12.8356 15.1349 9.99975C15.1349 7.16391 12.8358 4.86475 9.99993 4.86475ZM9.99993 13.3331C8.1591 13.3331 6.6666 11.8406 6.6666 9.99975C6.6666 8.15891 8.1591 6.66641 9.99993 6.66641C11.8408 6.66641 13.3333 8.15891 13.3333 9.99975C13.3333 11.8406 11.8408 13.3331 9.99993 13.3331Z" fill="white"></path>
<path d="M15.3384 5.86167C16.0011 5.86167 16.5384 5.32441 16.5384 4.66167C16.5384 3.99893 16.0011 3.46167 15.3384 3.46167C14.6756 3.46167 14.1384 3.99893 14.1384 4.66167C14.1384 5.32441 14.6756 5.86167 15.3384 5.86167Z" fill="white"></path>
<path d="M62.095 4.97872C62.1094 5.19513 62.1094 5.41256 62.1094 5.63102C62.1094 12.3047 57.0284 20 47.7404 20V19.9959C44.9968 20 42.3097 19.2144 40 17.7323C40.399 17.7806 40.8 17.8041 41.202 17.8052C43.4769 17.8072 45.6861 17.0442 47.4737 15.639C45.3127 15.598 43.4174 14.1888 42.7558 12.1314C43.5128 12.2771 44.2922 12.2473 45.0358 12.0453C42.6789 11.5694 40.9846 9.49864 40.9846 7.09458C40.9846 7.07305 40.9846 7.05151 40.9846 7.03099C41.6872 7.42278 42.4728 7.63919 43.2769 7.66278C41.0574 6.18075 40.3723 3.22901 41.7128 0.921359C44.2768 4.07618 48.0604 5.99409 52.1208 6.19819C51.7136 4.44437 52.2706 2.60646 53.5813 1.37263C55.6151 -0.540154 58.814 -0.441694 60.7268 1.59212C61.8581 1.36956 62.9422 0.954179 63.9339 0.366497C63.5565 1.53571 62.7678 2.52851 61.7135 3.16029C62.7155 3.0403 63.6929 2.77261 64.615 2.36441C63.937 3.37875 63.0837 4.26386 62.095 4.97872Z" fill="white"></path>
<path d="M102.042 17.0421H99.0783V12.4009C99.0783 11.2941 99.0586 9.86991 97.5368 9.86991C95.9934 9.86991 95.7568 11.0753 95.7568 12.3211V17.0421H92.7941V7.49758H95.6395V8.80152H95.679C96.2595 7.81001 97.3377 7.21767 98.4859 7.26005C101.49 7.26005 102.043 9.23617 102.043 11.8056L102.042 17.0421ZM89.45 6.19265C88.4999 6.19265 87.7301 5.42289 87.7301 4.47278C87.7301 3.52266 88.4999 2.75291 89.45 2.75291C90.4001 2.75291 91.1698 3.52266 91.1698 4.47278C91.1698 5.42289 90.4001 6.19265 89.45 6.19265ZM90.9313 17.0421H87.9647V7.49758H90.9313V17.0421ZM103.519 0.00112022H86.4754C85.6702 -0.00775016 85.0099 0.637817 85 1.44305V18.557C85.0099 19.3632 85.6702 20.0088 86.4754 19.9999H103.519C104.327 20.0097 104.99 19.3642 105.001 18.557V1.44206C104.989 0.63486 104.326 -0.010707 103.519 0.000134579" fill="white"></path>
<path d="M145.122 10.0608C145.122 15.082 141.438 19.2446 136.629 20V12.9885H138.967L139.412 10.0876H136.629V8.20541C136.629 7.41144 137.018 6.63844 138.263 6.63844H139.529V4.16852C139.529 4.16852 138.38 3.97233 137.283 3.97233C134.99 3.97233 133.493 5.36156 133.493 7.87592V10.0868H130.945V12.9876H133.493V19.9992C128.685 19.2429 125 15.0811 125 10.0608C125 4.50472 129.505 0 135.061 0C140.617 0 145.122 4.50388 145.122 10.0608Z" fill="white"></path>
</svg>
