<svg width="40" height="40" viewBox="0 0 40 40" fill="none" xmlns="http://www.w3.org/2000/svg">
<circle cx="20" cy="20" r="20" fill="#24B14B"></circle>
<path d="M31.514 13.9745C31.5312 14.2342 31.5312 14.4951 31.5312 14.7572C31.5312 22.7657 25.4341 32 14.2885 32V31.9951C10.9962 32 7.77164 31.0572 5 29.2788C5.47876 29.3367 5.95998 29.365 6.44244 29.3662C9.17223 29.3687 11.8233 28.453 13.9685 26.7669C11.3753 26.7176 9.10085 25.0266 8.30702 22.5577C9.21531 22.7325 10.1507 22.6968 11.043 22.4543C8.21471 21.8833 6.18152 19.3984 6.18152 16.5135C6.18152 16.4877 6.18152 16.4618 6.18152 16.4372C7.02458 16.9073 7.96733 17.167 8.93224 17.1953C6.2689 15.4169 5.44676 11.8748 7.05535 9.10563C10.1322 12.8914 14.6724 15.1929 19.545 15.4378C19.0564 13.3332 19.7247 11.1277 21.2976 9.64716C23.7381 7.35182 27.5768 7.46997 29.8722 9.91054C31.2297 9.64347 32.5306 9.14501 33.7207 8.4398C33.2678 9.84285 32.3214 11.0342 31.0562 11.7924C32.2586 11.6484 33.4315 11.3271 34.5379 10.8373C33.7244 12.0545 32.7004 13.1166 31.514 13.9745Z" fill="white"></path>
</svg>
