<svg width="35" height="35" viewBox="0 0 35 35" fill="none" xmlns="http://www.w3.org/2000/svg">
<path d="M34.591 32.5306L25.8933 23.8329C28.2635 20.9341 29.4289 17.2352 29.1483 13.5012C28.8678 9.76724 27.1628 6.28396 24.386 3.77184C21.6093 1.25972 17.9732 -0.0890299 14.2299 0.00456461C10.4866 0.0981591 6.92243 1.62694 4.27469 4.27469C1.62694 6.92243 0.0981591 10.4866 0.00456461 14.2299C-0.0890299 17.9732 1.25972 21.6093 3.77184 24.386C6.28396 27.1628 9.76724 28.8678 13.5012 29.1483C17.2352 29.4289 20.9341 28.2635 23.8329 25.8933L32.5306 34.591C32.8054 34.8564 33.1735 35.0033 33.5555 34.9999C33.9376 34.9966 34.3031 34.8434 34.5732 34.5732C34.8434 34.3031 34.9966 33.9376 34.9999 33.5555C35.0033 33.1735 34.8564 32.8054 34.591 32.5306ZM14.618 26.2751C12.3124 26.2751 10.0587 25.5914 8.14167 24.3105C6.22467 23.0296 4.73055 21.209 3.84826 19.079C2.96596 16.9489 2.73511 14.6051 3.1849 12.3438C3.63469 10.0826 4.74492 8.00547 6.37519 6.37519C8.00547 4.74492 10.0826 3.63469 12.3438 3.1849C14.6051 2.73511 16.9489 2.96596 19.079 3.84826C21.209 4.73055 23.0296 6.22467 24.3105 8.14167C25.5914 10.0587 26.2751 12.3124 26.2751 14.618C26.2716 17.7086 25.0423 20.6716 22.857 22.857C20.6716 25.0423 17.7086 26.2716 14.618 26.2751Z" fill="#606367"></path>
</svg>
